<!DOCTYPE svg PUBLIC "-//W3C//DTD SVG 1.1//EN" "http://www.w3.org/Graphics/SVG/1.1/DTD/svg11.dtd">
<svg width="200px" height="200px" viewBox="-1.5 -1.5 18.00 18.00" fill="#000000" xmlns="http://www.w3.org/2000/svg" stroke="#000000" stroke-width="0">
<g id="SVGRepo_bgCarrier" stroke-width="0">
<rect x="-1.5" y="-1.5" width="18.00" height="18.00" rx="2.6999999999999997" fill="#499eee" strokewidth="0"/>
</g> <path fill-rule="evenodd" clip-rule="evenodd" d="M0.13206 0.161445C0.226738 0.0585498 0.360176 0 0.500002 0H14.5C14.6398 0 14.7733 0.0585498 14.8679 0.161445C14.9626 0.264341 15.0099 0.40218 14.9983 0.541523L13.9983 12.5415C13.9817 12.7408 13.8479 12.9111 13.6581 12.9743L7.65812 14.9743C7.55548 15.0086 7.44452 15.0086 7.34189 14.9743L1.34189 12.9743C1.15214 12.9111 1.01834 12.7408 1.00173 12.5415L0.00172873 0.541523C-0.00988318 0.40218 0.0373829 0.264341 0.13206 0.161445ZM11 3H4V7H10V9.13962L7.5 9.97295L5 9.13962V8H4V9.86038L7.5 11.027L11 9.86038V6H5V4H11V3Z" fill="#000000"/> </svg>